<svg xmlns="http://www.w3.org/2000/svg" viewBox="0 0 1200 750" role="img" aria-labelledby="title desc">
  <title id="title">CzechTrip landing preview</title>
  <desc id="desc">Luxury travel landing preview with Prague skyline, route cards and gold accents.</desc>
  <defs>
    <linearGradient id="bg" x1="0" x2="1" y1="0" y2="1">
      <stop offset="0" stop-color="#0a0a0a"/>
      <stop offset=".52" stop-color="#151515"/>
      <stop offset="1" stop-color="#2a2314"/>
    </linearGradient>
    <linearGradient id="gold" x1="0" x2="1">
      <stop offset="0" stop-color="#c9a84c"/>
      <stop offset="1" stop-color="#f5dfa0"/>
    </linearGradient>
    <filter id="shadow" x="-20%" y="-20%" width="140%" height="140%">
      <feDropShadow dx="0" dy="24" stdDeviation="24" flood-color="#000" flood-opacity=".45"/>
    </filter>
  </defs>
  <rect width="1200" height="750" fill="url(#bg)"/>
  <circle cx="1030" cy="120" r="250" fill="#c9a84c" opacity=".12"/>
  <circle cx="140" cy="640" r="220" fill="#c9a84c" opacity=".08"/>
  <path d="M0 560 C170 470 290 510 420 440 C570 360 680 400 820 320 C965 240 1060 290 1200 210 L1200 750 L0 750 Z" fill="#111" opacity=".92"/>
  <path d="M0 600 C175 530 315 555 450 500 C590 445 695 460 850 390 C1000 322 1100 345 1200 300" fill="none" stroke="#c9a84c" stroke-width="2" opacity=".45"/>
  <g opacity=".9">
    <rect x="92" y="90" width="62" height="255" fill="#101010" stroke="#ffffff" stroke-opacity=".08"/>
    <path d="M123 42 L157 90 L89 90 Z" fill="#141414" stroke="#c9a84c" stroke-opacity=".45"/>
    <rect x="178" y="130" width="88" height="210" fill="#111" stroke="#ffffff" stroke-opacity=".08"/>
    <path d="M222 78 L272 130 L172 130 Z" fill="#151515" stroke="#c9a84c" stroke-opacity=".35"/>
    <rect x="296" y="112" width="54" height="228" fill="#0f0f0f" stroke="#ffffff" stroke-opacity=".08"/>
    <path d="M323 62 L354 112 L292 112 Z" fill="#151515" stroke="#c9a84c" stroke-opacity=".3"/>
  </g>
  <g transform="translate(525 96)" filter="url(#shadow)">
    <rect width="555" height="438" rx="10" fill="#0f0f0f" stroke="#ffffff" stroke-opacity=".12"/>
    <rect x="26" y="26" width="503" height="230" rx="8" fill="#171717"/>
    <path d="M26 222 C100 170 178 192 250 134 C325 72 405 96 529 48 L529 256 L26 256 Z" fill="#252016"/>
    <path d="M26 226 C105 178 177 194 250 140 C323 86 418 102 529 57" fill="none" stroke="#c9a84c" stroke-width="3"/>
    <rect x="52" y="54" width="105" height="10" rx="5" fill="#c9a84c"/>
    <rect x="52" y="84" width="300" height="36" rx="4" fill="#f5f0e8" opacity=".9"/>
    <rect x="52" y="133" width="240" height="10" rx="5" fill="#ffffff" opacity=".42"/>
    <rect x="52" y="154" width="190" height="10" rx="5" fill="#ffffff" opacity=".28"/>
    <rect x="52" y="194" width="128" height="42" rx="2" fill="url(#gold)"/>
    <g transform="translate(26 282)">
      <rect width="154" height="114" rx="8" fill="#171717" stroke="#ffffff" stroke-opacity=".08"/>
      <rect x="18" y="20" width="76" height="10" rx="5" fill="#c9a84c"/>
      <rect x="18" y="48" width="108" height="12" rx="6" fill="#ffffff" opacity=".66"/>
      <rect x="18" y="74" width="86" height="9" rx="5" fill="#ffffff" opacity=".28"/>
    </g>
    <g transform="translate(200 282)">
      <rect width="154" height="114" rx="8" fill="#171717" stroke="#ffffff" stroke-opacity=".08"/>
      <rect x="18" y="20" width="76" height="10" rx="5" fill="#c9a84c"/>
      <rect x="18" y="48" width="108" height="12" rx="6" fill="#ffffff" opacity=".66"/>
      <rect x="18" y="74" width="86" height="9" rx="5" fill="#ffffff" opacity=".28"/>
    </g>
    <g transform="translate(374 282)">
      <rect width="154" height="114" rx="8" fill="#171717" stroke="#ffffff" stroke-opacity=".08"/>
      <rect x="18" y="20" width="76" height="10" rx="5" fill="#c9a84c"/>
      <rect x="18" y="48" width="108" height="12" rx="6" fill="#ffffff" opacity=".66"/>
      <rect x="18" y="74" width="86" height="9" rx="5" fill="#ffffff" opacity=".28"/>
    </g>
  </g>
  <g transform="translate(96 402)">
    <text x="0" y="0" fill="#f5f0e8" font-family="Georgia,serif" font-size="72" font-weight="300">CzechTrip</text>
    <text x="0" y="48" fill="#c9a84c" font-family="Arial,sans-serif" font-size="18" font-weight="700" letter-spacing="4">TOURS FROM PRAGUE</text>
    <text x="0" y="90" fill="#ffffff" opacity=".62" font-family="Arial,sans-serif" font-size="22">Однодневные туры, маршруты и заявки</text>
  </g>
</svg>
